<?xml version="1.0" standalone="no"?>
<!DOCTYPE svg PUBLIC "-//W3C//DTD SVG 20010904//EN"
 "http://www.w3.org/TR/2001/REC-SVG-20010904/DTD/svg10.dtd">
<svg version="1.0" xmlns="http://www.w3.org/2000/svg"
 width="512.000000pt" height="512.000000pt" viewBox="0 0 512.000000 512.000000"
 preserveAspectRatio="xMidYMid meet">
<metadata>
Created by potrace 1.14, written by Peter Selinger 2001-2017
</metadata>
<g transform="translate(0.000000,512.000000) scale(0.100000,-0.100000)"
fill="#000000" stroke="none">
<path d="M2199 5116 c-2 -2 -35 -7 -74 -10 -59 -5 -155 -20 -265 -41 -108 -20
-374 -103 -490 -153 -85 -36 -271 -128 -335 -165 -69 -40 -228 -141 -249 -158
-6 -5 -47 -36 -91 -70 -93 -70 -210 -176 -304 -273 -86 -90 -88 -92 -146 -161
-27 -33 -55 -66 -62 -73 -24 -25 -93 -147 -118 -211 -15 -35 -35 -103 -45
-150 -18 -81 -19 -145 -16 -1206 1 -616 6 -1136 10 -1155 6 -31 11 -60 31
-180 8 -49 53 -225 72 -285 50 -159 98 -280 211 -538 l126 -287 2220 2 2221 3
50 27 c67 35 109 78 142 146 27 56 28 61 28 227 0 165 -1 172 -27 221 -31 59
-94 119 -153 145 -39 17 -280 80 -356 93 -19 3 -45 8 -59 11 -14 3 -47 8 -75
11 -27 4 -53 8 -57 11 -4 2 -74 6 -155 9 l-148 6 -43 47 c-66 71 -164 204
-212 286 -155 273 -179 531 -69 761 36 76 34 116 -7 155 -39 37 -91 31 -197
-20 -181 -87 -349 -222 -451 -361 -44 -59 -46 -61 -55 -38 -5 12 -18 46 -29
73 -107 272 -77 569 77 763 33 42 59 61 124 93 96 46 117 67 117 119 0 48 -30
86 -81 101 -43 13 -53 22 -64 57 -10 34 44 79 170 142 93 45 109 57 122 88 30
72 -10 129 -100 146 -158 28 -538 29 -672 1 -11 -3 -33 -7 -50 -9 -84 -13
-285 -73 -301 -89 -4 -4 -14 -7 -21 -7 -19 0 -195 -89 -272 -138 -36 -22 -68
-39 -72 -37 -12 8 -77 150 -95 210 -29 93 -26 288 4 380 60 180 176 328 350
446 41 27 82 49 92 49 30 0 117 -50 158 -91 46 -44 69 -88 82 -158 23 -124 85
-143 227 -71 151 77 226 188 230 337 2 73 -1 88 -28 142 -39 77 -109 139 -217
192 -108 53 -134 98 -97 169 27 53 44 57 285 65 198 7 205 9 236 42 26 28 32
75 13 116 -31 69 -348 192 -587 228 -71 10 -445 23 -453 15z"/>
<path d="M3575 4071 c-123 -56 -141 -217 -34 -303 87 -70 224 -36 270 66 38
85 10 177 -69 227 -54 34 -107 38 -167 10z"/>
<path d="M4570 3458 c-120 -18 -194 -105 -194 -228 0 -100 46 -170 141 -212
52 -23 141 -20 190 6 134 71 168 259 65 365 -55 58 -123 81 -202 69z"/>
<path d="M4477 1992 c-212 -75 -204 -375 11 -436 84 -23 152 -8 219 48 67 56
95 175 60 257 -47 113 -175 171 -290 131z"/>
</g>
</svg>
