<?xml version="1.0" encoding="UTF-8" standalone="no"?>
<!DOCTYPE svg PUBLIC "-//W3C//DTD SVG 1.1//EN" "http://www.w3.org/Graphics/SVG/1.1/DTD/svg11.dtd">
<!-- Created with Vectornator (http://vectornator.io/) -->
<svg height="100%" stroke-miterlimit="10" style="fill-rule:nonzero;clip-rule:evenodd;stroke-linecap:round;stroke-linejoin:round;" version="1.1" viewBox="0 0 2000 2000" width="100%" xml:space="preserve" xmlns="http://www.w3.org/2000/svg" xmlns:xlink="http://www.w3.org/1999/xlink">
<defs/>
<g id="Layer-1">
<g opacity="1">
<path d="M600.719 161.719C595.85 161.566 590.986 161.643 586.125 161.969C579.113 162.438 572.129 163.406 565.25 164.844C520.76 174.139 483.117 202.497 452.656 235.125C439.081 249.666 426.816 265.284 415.188 281.406C405.926 294.247 397.016 307.321 388.625 320.75C385.396 325.919 382.203 331.133 379.094 336.375C376.73 340.36 374.448 344.372 372.062 348.344C358.89 370.275 346.343 392.582 334.656 415.344C328.989 426.381 323.612 437.564 318.312 448.781C308.087 470.423 298.403 492.271 289.219 514.375C273.999 551.006 259.971 588.12 246.875 625.562C236.929 653.998 227.529 682.636 218.5 711.375C203.162 760.199 189.027 809.415 176 858.906C168.584 887.08 161.508 915.341 154.781 943.688C151.022 959.528 147.217 975.364 143.938 991.312C137.656 1023.45 158.617 1054.59 190.75 1060.88C222.883 1067.16 254 1046.2 260.281 1014.06C260.997 1009.18 262.074 1004.34 263 999.5C264.735 990.426 266.542 981.367 268.375 972.312C273.725 945.879 279.406 919.488 285.375 893.188C292.442 862.048 299.924 831.027 307.719 800.062C317.853 759.806 328.65 719.699 340.375 679.875C352.652 638.177 365.763 596.77 379.969 555.688C388.149 532.031 396.927 508.558 405.969 485.219C409.987 474.848 414.242 464.572 418.531 454.312C422.445 444.952 426.366 435.624 430.469 426.344C434.002 418.353 437.691 410.424 441.438 402.531C443.547 398.087 445.622 393.577 447.906 389.219C453.912 377.758 460.425 366.566 467.125 355.5C470.456 349.998 473.894 344.544 477.406 339.156C479.579 335.822 481.784 332.491 484.094 329.25C493.302 316.329 503.136 303.82 513.938 292.188C517.681 288.156 521.532 284.246 525.531 280.469C528.902 277.285 532.389 274.197 535.969 271.25C553.749 256.611 575.6 244.073 599.375 245.25C613.469 245.948 626.876 251.329 638.844 258.562C655.784 268.801 670.447 282.609 683.625 297.281C706.905 323.2 726.26 352.715 743.656 382.812C766.182 421.785 785.632 462.507 803.469 503.812C829.11 563.194 851.315 624.005 871.875 685.312C897.499 761.721 920.286 839.087 941.438 916.844C947.447 938.934 953.313 961.059 959.062 983.219C967.969 1017.55 976.662 1051.93 985.844 1086.19C1010.4 1177.83 1037.06 1268.98 1067.53 1358.84C1081.93 1401.3 1097.22 1443.48 1113.84 1485.12C1128.2 1521.07 1143.55 1556.61 1160.38 1591.47C1172.09 1615.73 1184.54 1639.66 1198.06 1662.97C1210.42 1684.27 1223.65 1705.08 1238.22 1724.94C1257.8 1751.64 1279.76 1776.98 1306.09 1797.25C1321.62 1809.21 1338.6 1819.71 1356.94 1826.78C1368.43 1831.22 1380.63 1834.19 1392.84 1835.69C1402.15 1836.82 1411.56 1837.06 1420.91 1836.38C1428.23 1835.84 1435.53 1834.71 1442.69 1833.06C1487.24 1822.8 1523.76 1792.82 1553.03 1758.91C1568.48 1741.01 1582.15 1721.67 1594.81 1701.72C1614.22 1671.14 1630.86 1638.82 1646.09 1606C1663.55 1568.4 1679.02 1529.89 1693.28 1490.97C1707.54 1452.05 1720.54 1412.67 1732.53 1373C1753.88 1302.4 1772.68 1231.03 1789.38 1159.19C1796.13 1130.14 1802.5 1100.99 1808.53 1071.78C1812.77 1051.25 1816.89 1030.67 1820.59 1010.03C1822.12 1002.24 1817.01 994.711 1809.22 993.188C1801.43 991.664 1793.9 996.738 1792.38 1004.53C1781.3 1054.83 1768.57 1104.79 1755 1154.47C1737.51 1218.48 1718.32 1282.07 1696.69 1344.81C1674.36 1409.57 1649.82 1473.64 1620.81 1535.72C1603.19 1573.43 1583.8 1610.61 1561.25 1645.62C1544.49 1671.66 1526.1 1696.88 1504.25 1718.91C1500.23 1722.96 1496.09 1726.9 1491.81 1730.69C1488.53 1733.58 1485.18 1736.36 1481.72 1739.03C1462.93 1753.54 1440.29 1765.67 1415.91 1764.72C1408.23 1764.42 1400.65 1762.79 1393.44 1760.19C1390.37 1759.08 1387.41 1757.74 1384.44 1756.41C1366.88 1748.53 1351.85 1735.98 1338.34 1722.47C1335.21 1719.33 1332.06 1716.19 1329.03 1712.94C1317.89 1700.98 1307.73 1688.15 1298.22 1674.88C1287.04 1659.27 1276.75 1643.04 1267.06 1626.47C1243.05 1585.38 1222.66 1542.26 1203.97 1498.53C1179.51 1441.31 1158.26 1382.72 1138.62 1323.69C1112.46 1245.04 1089.41 1165.4 1068.09 1085.31C1062.21 1063.19 1056.44 1041.04 1050.81 1018.84C1045.53 998.03 1040.4 977.182 1035.09 956.375C1028.83 931.822 1022.42 907.313 1015.84 882.844C993.228 798.73 968.713 715.055 940.719 632.562C926.967 592.04 912.302 551.807 896.438 512.062C882.179 476.34 866.949 441 850.125 406.406C837.449 380.342 823.9 354.666 809.031 329.781C797.102 309.816 784.334 290.337 770.344 271.75C751.018 246.075 729.268 221.841 703.781 202.125C688.54 190.335 671.898 180.21 653.969 173.062C641.554 168.113 628.541 164.603 615.281 162.875C610.45 162.245 605.587 161.871 600.719 161.719Z" fill="#a81717" stroke="none"/>
</g>
</g>
</svg>
