<?xml version="1.0" encoding="UTF-8" standalone="no"?>
<!DOCTYPE svg PUBLIC "-//W3C//DTD SVG 1.1//EN" "http://www.w3.org/Graphics/SVG/1.1/DTD/svg11.dtd">
<!-- Created with Vectornator (http://vectornator.io/) -->
<svg height="100%" stroke-miterlimit="10" style="fill-rule:nonzero;clip-rule:evenodd;stroke-linecap:round;stroke-linejoin:round;" version="1.1" viewBox="0 0 2000 1722.11" width="100%" xml:space="preserve" xmlns="http://www.w3.org/2000/svg" xmlns:xlink="http://www.w3.org/1999/xlink">
<defs/>
<g id="Layer-1">
<g opacity="1">
<path d="M596.438 20.7188C591.569 20.5661 586.705 20.6432 581.844 20.9688C574.832 21.4384 567.848 22.4065 560.969 23.8438C516.478 33.1389 478.836 61.497 448.375 94.125C434.8 108.666 422.504 124.315 410.875 140.438C401.613 153.278 392.703 166.321 384.312 179.75C381.083 184.919 377.922 190.133 374.812 195.375C372.449 199.36 370.167 203.404 367.781 207.375C354.609 229.306 342.061 251.582 330.375 274.344C324.708 285.381 319.3 296.564 314 307.781C303.775 329.423 294.09 351.302 284.906 373.406C269.686 410.038 255.659 447.151 242.562 484.594C232.617 513.03 223.247 541.667 214.219 570.406C198.88 619.23 184.746 668.416 171.719 717.906C164.303 746.08 157.195 774.341 150.469 802.688C146.71 818.528 142.905 834.364 139.625 850.312C133.343 882.445 154.304 913.594 186.438 919.875C218.57 926.157 249.718 905.196 256 873.062C256.716 868.184 257.793 863.34 258.719 858.5C260.454 849.426 262.23 840.367 264.062 831.312C269.412 804.879 275.125 778.519 281.094 752.219C288.161 721.08 295.643 690.027 303.438 659.062C313.571 618.806 324.337 578.73 336.062 538.906C348.339 497.208 361.482 455.77 375.688 414.688C383.868 391.031 392.614 367.558 401.656 344.219C405.674 333.848 409.961 323.572 414.25 313.312C418.164 303.952 422.085 294.624 426.188 285.344C429.72 277.353 433.378 269.424 437.125 261.531C439.235 257.087 441.341 252.608 443.625 248.25C449.631 236.79 456.144 225.566 462.844 214.5C466.175 208.998 469.613 203.575 473.125 198.188C475.298 194.854 477.471 191.491 479.781 188.25C488.99 175.329 498.855 162.851 509.656 151.219C513.4 147.187 517.251 143.246 521.25 139.469C524.621 136.285 528.076 133.197 531.656 130.25C549.436 115.611 571.287 103.104 595.062 104.281C609.157 104.979 622.594 110.36 634.562 117.594C651.503 127.832 666.165 141.609 679.344 156.281C702.624 182.2 721.979 211.746 739.375 241.844C761.901 280.816 781.32 321.538 799.156 362.844C824.798 422.225 847.034 483.037 867.594 544.344C893.218 620.752 915.973 698.088 937.125 775.844C943.134 797.934 949.001 820.09 954.75 842.25C963.657 876.58 972.349 910.96 981.531 945.219C1006.09 1036.86 1032.75 1128.01 1063.22 1217.88C1077.62 1260.34 1092.93 1302.48 1109.56 1344.12C1123.91 1380.07 1139.24 1415.64 1156.06 1450.5C1167.78 1474.76 1180.23 1498.66 1193.75 1521.97C1206.11 1543.27 1219.37 1564.11 1233.94 1583.97C1253.52 1610.67 1275.45 1636.01 1301.78 1656.28C1317.31 1668.24 1334.32 1678.74 1352.66 1685.81C1364.15 1690.25 1376.34 1693.19 1388.56 1694.69C1397.87 1695.82 1407.24 1696.09 1416.59 1695.41C1423.92 1694.87 1431.22 1693.74 1438.38 1692.09C1482.92 1681.83 1519.45 1651.82 1548.72 1617.91C1564.17 1600.01 1577.87 1580.67 1590.53 1560.72C1609.93 1530.14 1626.57 1497.82 1641.81 1465C1659.27 1427.4 1674.74 1388.89 1689 1349.97C1703.26 1311.05 1716.26 1271.67 1728.25 1232C1749.6 1161.4 1768.37 1090.03 1785.06 1018.19C1791.81 989.139 1798.22 959.989 1804.25 930.781C1808.49 910.247 1812.57 889.7 1816.28 869.062C1817.81 861.27 1812.73 853.711 1804.94 852.188C1797.14 850.664 1789.59 855.738 1788.06 863.531C1776.99 913.83 1764.26 963.791 1750.69 1013.47C1733.19 1077.48 1714.04 1141.07 1692.41 1203.81C1670.08 1268.57 1645.54 1332.67 1616.53 1394.75C1598.91 1432.46 1579.48 1469.61 1556.94 1504.62C1540.17 1530.66 1521.82 1555.88 1499.97 1577.91C1495.95 1581.96 1491.81 1585.9 1487.53 1589.69C1484.25 1592.58 1480.87 1595.39 1477.41 1598.06C1458.62 1612.57 1435.98 1624.67 1411.59 1623.72C1403.92 1623.42 1396.34 1621.79 1389.12 1619.19C1386.06 1618.08 1383.09 1616.74 1380.12 1615.41C1362.57 1607.53 1347.54 1595.01 1334.03 1581.5C1330.89 1578.36 1327.78 1575.22 1324.75 1571.97C1313.61 1560.01 1303.45 1547.15 1293.94 1533.88C1282.75 1518.27 1272.47 1502.04 1262.78 1485.47C1238.77 1444.38 1218.35 1401.26 1199.66 1357.53C1175.2 1300.31 1153.95 1241.75 1134.31 1182.72C1108.15 1104.07 1085.12 1024.43 1063.81 944.344C1057.92 922.217 1052.16 900.038 1046.53 877.844C1041.25 857.03 1036.12 836.183 1030.81 815.375C1024.55 790.822 1018.14 766.313 1011.56 741.844C988.947 657.73 964.4 574.086 936.406 491.594C922.655 451.072 908.02 410.838 892.156 371.094C877.898 335.371 862.668 300 845.844 265.406C833.168 239.342 819.619 213.666 804.75 188.781C792.821 168.816 780.053 149.337 766.062 130.75C746.737 105.075 724.986 80.841 699.5 61.125C684.259 49.3347 667.617 39.2414 649.688 32.0938C637.273 27.1445 624.26 23.6341 611 21.9062C606.169 21.2767 601.306 20.8714 596.438 20.7188Z" fill="#a81717" stroke="none"/>
</g>
</g>
</svg>
