<?xml version="1.0" encoding="UTF-8" standalone="no"?>
<!DOCTYPE svg PUBLIC "-//W3C//DTD SVG 1.1//EN" "http://www.w3.org/Graphics/SVG/1.1/DTD/svg11.dtd">
<!-- Created with Vectornator (http://vectornator.io/) -->
<svg height="100%" stroke-miterlimit="10" style="fill-rule:nonzero;clip-rule:evenodd;stroke-linecap:round;stroke-linejoin:round;" version="1.1" viewBox="0 0 2000 2000" width="100%" xml:space="preserve" xmlns="http://www.w3.org/2000/svg" xmlns:xlink="http://www.w3.org/1999/xlink">
<defs/>
<g id="Layer-1">
<g opacity="1">
<path d="M399.875 541.562C395.737 541.546 391.61 541.797 387.5 542.281C361.167 545.385 337.467 558.718 318 576.25C307.873 585.371 298.823 595.592 290.469 606.344C278.474 621.782 268.052 638.484 258.625 655.594C237.719 693.537 220.998 733.707 206.281 774.406C190.232 818.791 176.653 864.061 164.5 909.656C159.655 927.834 155.069 946.065 150.75 964.375C148.41 974.298 146.033 984.251 144.031 994.25C137.831 1026.4 158.851 1057.49 191 1063.69C223.149 1069.89 254.237 1048.84 260.438 1016.69C260.421 1016.75 260.458 1016.56 260.469 1016.5C260.488 1016.39 260.512 1016.3 260.531 1016.19C260.593 1015.84 260.656 1015.5 260.719 1015.16C260.875 1014.29 261.027 1013.43 261.188 1012.56C261.669 1009.96 262.155 1007.35 262.656 1004.75C264.143 997.032 265.711 989.32 267.312 981.625C272.05 958.857 277.196 936.169 282.781 913.594C292.918 872.626 304.38 831.974 317.938 792C324.259 773.36 331.136 754.933 338.75 736.781C344.435 723.229 350.611 709.811 357.594 696.875C361.927 688.847 366.548 681.016 371.531 673.375C375.914 666.654 380.731 660.172 386.188 654.281C388.183 652.127 390.301 650.069 392.531 648.156C393.756 647.106 395.015 646.104 396.344 645.188C397.505 644.386 398.732 643.702 399.969 643.031C400.193 642.909 400.462 642.794 400.656 642.625C400.874 642.436 400.935 642.213 401.281 642.156C402.43 641.968 403.834 642.624 404.844 643.062C405.645 643.411 406.427 643.821 407.188 644.25C408.467 644.972 409.681 645.77 410.875 646.625C418.039 651.751 424.186 658.373 429.781 665.125C439.54 676.902 447.781 689.857 455.5 703.031C463.96 717.47 471.643 732.288 478.875 747.375C481.981 753.855 485.081 760.392 487.906 767C491.12 774.517 494.042 782.149 496.969 789.781C502.429 804.023 507.617 818.395 512.594 832.812C514.783 839.155 516.794 845.539 518.812 851.938C522.246 862.823 525.581 873.74 528.812 884.688C538.267 916.72 546.892 948.985 555.031 981.375C560.966 1004.99 566.507 1028.73 572.438 1052.34C583.745 1097.38 595.977 1142.19 609.875 1186.5C621.529 1223.65 634.298 1260.51 649.344 1296.44C654.718 1309.27 660.384 1321.99 666.469 1334.5C671.092 1344.01 675.945 1353.41 681.125 1362.62C685.012 1369.54 689.09 1376.35 693.375 1383.03C696.513 1387.92 699.758 1392.72 703.156 1397.44C722.652 1424.48 748.006 1450.09 780.938 1459.41C785.828 1460.79 790.826 1461.79 795.875 1462.38C802.534 1463.14 809.271 1463.17 815.938 1462.47C825.574 1461.46 835.001 1458.93 843.906 1455.12C867.775 1444.94 887.06 1426.37 902.75 1406.09C915.156 1390.06 925.606 1372.62 935.062 1354.72C945.852 1334.29 955.209 1313.09 963.719 1291.62C978.025 1255.54 990.155 1218.62 1000.97 1181.34C1011.46 1145.2 1020.75 1108.7 1029.06 1072C1032.44 1057.09 1035.63 1042.12 1038.62 1027.12C1040.18 1019.35 1041.6 1011.57 1043.12 1003.78C1045.26 992.866 1047.5 981.966 1049.84 971.094C1059.6 925.875 1070.87 880.966 1084.06 836.625C1093.35 805.402 1103.72 774.439 1115.91 744.219C1125.88 719.472 1137.05 694.996 1151.12 672.281C1155.33 665.496 1159.84 658.865 1164.78 652.594C1168.91 647.349 1173.38 642.322 1178.38 637.875C1181.48 635.11 1184.81 632.504 1188.5 630.562C1190.7 629.404 1193.07 628.441 1195.56 628.188C1201.57 627.578 1207.99 631.939 1212.44 635.406C1217.92 639.682 1222.76 644.741 1227.25 650.031C1232.47 656.189 1237.18 662.763 1241.62 669.5C1255.74 690.912 1267.12 714.078 1277.41 737.531C1290.3 766.953 1301.42 797.143 1311.62 827.594C1317.26 844.402 1322.6 861.31 1327.72 878.281C1330.51 887.528 1333.15 896.807 1335.91 906.062C1339.76 919.006 1343.65 931.955 1347.38 944.938C1350.55 955.992 1353.55 967.092 1356.69 978.156C1359.49 988.032 1362.51 997.853 1365.34 1007.72C1381.76 1064.82 1398.81 1121.74 1418.28 1177.88C1429.53 1210.29 1441.59 1242.46 1455.19 1273.97C1466.44 1300.04 1478.71 1325.68 1492.97 1350.25C1497.18 1357.51 1501.57 1364.66 1506.22 1371.66C1509.89 1377.18 1513.71 1382.62 1517.72 1387.91C1529.35 1403.24 1542.66 1417.72 1558.62 1428.62C1572.24 1437.92 1587.94 1444.35 1604.53 1445.12C1609.93 1445.38 1615.39 1445.04 1620.72 1444.12C1642.45 1440.41 1661.11 1427.32 1676.06 1411.62C1685.85 1401.36 1694.3 1389.92 1701.91 1377.97C1712.21 1361.79 1721.01 1344.69 1729.03 1327.28C1736.8 1310.42 1743.68 1293.16 1750.12 1275.75C1757.35 1256.22 1763.88 1236.45 1769.94 1216.53C1782.05 1176.7 1792.42 1136.36 1801.56 1095.75C1808 1067.15 1813.86 1038.4 1818.81 1009.5C1820.26 1001.69 1815.12 994.193 1807.31 992.75C1799.5 991.307 1792.01 996.473 1790.56 1004.28C1777.5 1064.88 1761.73 1124.92 1742.53 1183.88C1731.34 1218.24 1718.83 1252.26 1703.97 1285.22C1697.67 1299.18 1690.87 1312.94 1683.41 1326.31C1677.17 1337.49 1670.42 1348.4 1662.84 1358.72C1660.05 1362.53 1657.12 1366.27 1654.06 1369.88C1651.96 1372.35 1649.81 1374.76 1647.56 1377.09C1645.83 1378.89 1644.06 1380.63 1642.22 1382.31C1631.9 1391.76 1618.19 1400.89 1603.53 1397.41C1595.98 1395.61 1589.25 1391.21 1583.38 1386.28C1573.48 1377.97 1565.31 1367.65 1558.03 1357.03C1545.9 1339.33 1535.99 1320.13 1527.12 1300.62C1516.89 1278.11 1508.02 1255.01 1499.88 1231.66C1478.61 1170.69 1462.33 1108.03 1448.09 1045.09C1444.24 1028.06 1440.69 1010.97 1437.16 993.875C1434.78 982.359 1432.5 970.799 1429.84 959.344C1426.92 946.739 1423.72 934.197 1420.53 921.656C1417.38 909.26 1414.21 896.855 1410.78 884.531C1408.8 877.407 1406.7 870.308 1404.59 863.219C1400.2 848.392 1395.6 833.622 1390.84 818.906C1378.3 780.079 1364.5 741.602 1348.03 704.25C1342.84 692.467 1337.35 680.784 1331.5 669.312C1327.07 660.638 1322.42 652.093 1317.5 643.688C1313.84 637.424 1310.01 631.233 1306 625.188C1302.83 620.418 1299.55 615.741 1296.12 611.156C1275.45 583.512 1248.07 557.748 1212.97 551.312C1208.07 550.415 1203.1 549.928 1198.12 549.844C1193.22 549.76 1188.29 550.067 1183.44 550.781C1158.83 554.4 1137.23 568.061 1119.78 585.281C1106.64 598.244 1095.55 613.186 1085.69 628.75C1072.52 649.542 1061.43 671.642 1051.53 694.156C1034.98 731.81 1021.42 770.733 1009.34 810.031C996.343 852.345 985.145 895.202 975.25 938.344C972.012 952.46 968.919 966.627 966 980.812C965.04 985.476 964.101 990.14 963.188 994.812C962.867 996.452 962.562 998.078 962.25 999.719C962.155 1000.22 962.031 1000.72 961.938 1001.22C961.908 1001.38 961.903 1001.41 961.875 1001.56C961.863 1001.63 961.834 1001.81 961.844 1001.75C961.841 1001.76 961.846 1001.77 961.844 1001.78C961.814 1001.94 961.814 1001.96 961.781 1002.12C961.711 1002.49 961.633 1002.83 961.562 1003.19C961.389 1004.07 961.208 1004.99 961.031 1005.88C960.505 1008.51 959.982 1011.12 959.438 1013.75C957.73 1022 955.959 1030.25 954.125 1038.47C947.515 1068.11 940.221 1097.59 932.188 1126.88C925.849 1149.98 919.07 1172.99 911.594 1195.75C902.031 1224.87 891.601 1253.72 879.25 1281.78C870.337 1302.03 860.446 1322 848.406 1340.59C841.265 1351.62 833.347 1362.5 823.469 1371.25C820.626 1373.77 817.581 1376.13 814.25 1377.97C812.38 1379 810.368 1379.91 808.25 1380.28C803.139 1381.19 797.674 1377.53 793.844 1374.66C792.942 1373.98 792.051 1373.25 791.188 1372.53C786.287 1368.43 781.936 1363.71 777.875 1358.78C772.008 1351.67 766.753 1344.04 761.875 1336.22C747.711 1313.51 736.364 1289.08 726.094 1264.41C712.811 1232.49 701.465 1199.77 691.062 1166.81C677.721 1124.55 665.961 1081.81 655.125 1038.84C646.861 1006.07 639.302 973.107 630.875 940.375C623.28 910.875 615.239 881.482 606.562 852.281C603.761 842.853 600.887 833.445 597.938 824.062C596.386 819.128 594.785 814.221 593.25 809.281C587.911 792.096 582.289 774.995 576.281 758.031C573.597 750.453 570.771 742.921 568 735.375C564.511 725.872 561.179 716.32 557.531 706.875C547.52 680.953 536.154 655.5 522.094 631.5C510.528 611.758 497.143 592.694 480.469 576.906C469.725 566.734 457.599 557.914 444.156 551.656C434.079 546.965 423.317 543.767 412.281 542.375C408.175 541.857 404.013 541.579 399.875 541.562Z" fill="#1dbb45" stroke="none"/>
</g>
</g>
</svg>
