<?xml version="1.0" encoding="UTF-8" standalone="no"?>
<!DOCTYPE svg PUBLIC "-//W3C//DTD SVG 1.1//EN" "http://www.w3.org/Graphics/SVG/1.1/DTD/svg11.dtd">
<!-- Created with Vectornator (http://vectornator.io/) -->
<svg height="100%" stroke-miterlimit="10" style="fill-rule:nonzero;clip-rule:evenodd;stroke-linecap:round;stroke-linejoin:round;" version="1.1" viewBox="0 0 2000 1000" width="100%" xml:space="preserve" xmlns="http://www.w3.org/2000/svg" xmlns:xlink="http://www.w3.org/1999/xlink">
<defs/>
<g id="Layer-1">
<g opacity="1">
<path d="M396.438 36.2188C392.3 36.2027 388.142 36.453 384.031 36.9375C357.698 40.0416 333.999 53.3739 314.531 70.9062C304.404 80.0271 295.354 90.2478 287 101C275.005 116.438 264.615 133.14 255.188 150.25C234.281 188.193 217.529 228.363 202.812 269.062C186.763 313.448 173.184 358.717 161.031 404.312C156.186 422.49 151.6 440.721 147.281 459.031C144.941 468.954 142.564 478.908 140.562 488.906C134.362 521.055 155.382 552.144 187.531 558.344C219.68 564.544 250.769 543.493 256.969 511.344C256.952 511.405 256.989 511.219 257 511.156C257.021 511.038 257.041 510.998 257.062 510.875C257.124 510.527 257.187 510.16 257.25 509.812C257.407 508.945 257.558 508.086 257.719 507.219C258.2 504.614 258.718 502.007 259.219 499.406C260.705 491.688 262.243 483.976 263.844 476.281C268.581 453.513 273.727 430.825 279.312 408.25C289.449 367.282 300.911 326.63 314.469 286.656C320.79 268.017 327.667 249.589 335.281 231.438C340.966 217.886 347.142 204.468 354.125 191.531C358.459 183.503 363.08 175.672 368.062 168.031C372.445 161.311 377.293 154.829 382.75 148.938C384.746 146.783 386.833 144.725 389.062 142.812C390.287 141.762 391.546 140.761 392.875 139.844C394.036 139.042 395.263 138.359 396.5 137.688C396.724 137.566 397.024 137.45 397.219 137.281C397.436 137.092 397.466 136.869 397.812 136.812C398.962 136.624 400.366 137.28 401.375 137.719C402.176 138.067 402.958 138.477 403.719 138.906C404.998 139.628 406.243 140.427 407.438 141.281C414.601 146.407 420.748 153.029 426.344 159.781C436.102 171.558 444.312 184.513 452.031 197.688C460.491 212.126 468.175 226.944 475.406 242.031C478.512 248.511 481.612 255.049 484.438 261.656C487.652 269.173 490.605 276.805 493.531 284.438C498.992 298.679 504.148 313.051 509.125 327.469C511.314 333.811 513.326 340.195 515.344 346.594C518.777 357.479 522.113 368.397 525.344 379.344C534.799 411.376 543.423 443.641 551.562 476.031C557.497 499.648 563.038 523.382 568.969 547C580.276 592.031 592.508 636.851 606.406 681.156C618.06 718.309 630.829 755.166 645.875 791.094C651.249 803.926 656.915 816.644 663 829.156C667.623 838.663 672.476 848.065 677.656 857.281C681.544 864.198 685.622 871.009 689.906 877.688C693.044 882.579 696.289 887.38 699.688 892.094C719.184 919.134 744.537 944.746 777.469 954.062C782.359 955.446 787.357 956.449 792.406 957.031C799.066 957.799 805.802 957.823 812.469 957.125C822.105 956.116 831.563 953.582 840.469 949.781C864.337 939.596 883.591 921.025 899.281 900.75C911.688 884.718 922.137 867.277 931.594 849.375C942.383 828.95 951.74 807.747 960.25 786.281C974.556 750.195 986.686 713.272 997.5 676C1007.99 639.856 1017.28 603.359 1025.59 566.656C1028.97 551.744 1032.2 536.807 1035.19 521.812C1036.74 514.034 1038.13 506.222 1039.66 498.438C1041.79 487.522 1044.03 476.622 1046.38 465.75C1056.13 420.531 1067.4 375.622 1080.59 331.281C1089.88 300.058 1100.25 269.095 1112.44 238.875C1122.42 214.128 1133.58 189.652 1147.66 166.938C1151.86 160.153 1156.37 153.521 1161.31 147.25C1165.45 142.005 1169.91 136.978 1174.91 132.531C1178.01 129.767 1181.34 127.191 1185.03 125.25C1187.23 124.092 1189.63 123.097 1192.12 122.844C1198.13 122.234 1204.53 126.596 1208.97 130.062C1214.45 134.338 1219.3 139.397 1223.78 144.688C1229 150.845 1233.75 157.419 1238.19 164.156C1252.3 185.568 1263.66 208.735 1273.94 232.188C1286.84 261.609 1297.95 291.799 1308.16 322.25C1313.79 339.059 1319.16 355.967 1324.28 372.938C1327.07 382.184 1329.68 391.463 1332.44 400.719C1336.29 413.662 1340.21 426.612 1343.94 439.594C1347.11 450.648 1350.11 461.749 1353.25 472.812C1356.05 482.688 1359.04 492.509 1361.88 502.375C1378.29 559.472 1395.34 616.391 1414.81 672.531C1426.06 704.947 1438.12 737.117 1451.72 768.625C1462.97 794.693 1475.25 820.334 1489.5 844.906C1493.71 852.169 1498.1 859.35 1502.75 866.344C1506.42 871.866 1510.24 877.281 1514.25 882.562C1525.88 897.891 1539.19 912.376 1555.16 923.281C1568.77 932.578 1584.5 939.009 1601.09 939.781C1606.5 940.033 1611.92 939.693 1617.25 938.781C1638.99 935.063 1657.64 922.003 1672.59 906.312C1682.38 896.047 1690.86 884.572 1698.47 872.625C1708.77 856.446 1717.55 839.38 1725.56 821.969C1733.33 805.106 1740.22 787.812 1746.66 770.406C1753.88 750.879 1760.41 731.107 1766.47 711.188C1778.58 671.36 1788.95 631.013 1798.09 590.406C1804.53 561.807 1810.42 533.083 1815.38 504.188C1816.82 496.379 1811.65 488.85 1803.84 487.406C1796.04 485.963 1788.54 491.129 1787.09 498.938C1774.03 559.534 1758.26 619.578 1739.06 678.531C1727.87 712.895 1715.39 746.918 1700.53 779.875C1694.23 793.838 1687.4 807.594 1679.94 820.969C1673.7 832.142 1666.95 843.053 1659.38 853.375C1656.58 857.187 1653.68 860.926 1650.62 864.531C1648.53 867.005 1646.35 869.415 1644.09 871.75C1642.36 873.543 1640.59 875.287 1638.75 876.969C1628.43 886.418 1614.73 895.551 1600.06 892.062C1592.51 890.267 1585.78 885.868 1579.91 880.938C1570.01 872.63 1561.84 862.306 1554.56 851.688C1542.43 833.982 1532.56 814.79 1523.69 795.281C1513.45 772.762 1504.58 749.663 1496.44 726.312C1475.17 665.347 1458.89 602.688 1444.66 539.75C1440.8 522.72 1437.22 505.63 1433.69 488.531C1431.31 477.015 1429.03 465.455 1426.38 454C1423.45 441.395 1420.25 428.853 1417.06 416.312C1413.91 403.916 1410.77 391.511 1407.34 379.188C1405.36 372.063 1403.23 364.996 1401.12 357.906C1396.73 343.079 1392.16 328.278 1387.41 313.562C1374.86 274.736 1361.03 236.258 1344.56 198.906C1339.37 187.123 1333.88 175.44 1328.03 163.969C1323.61 155.294 1318.98 146.75 1314.06 138.344C1310.4 132.08 1306.55 125.89 1302.53 119.844C1299.36 115.074 1296.08 110.397 1292.66 105.812C1271.98 78.1681 1244.6 52.4038 1209.5 45.9688C1204.6 45.0714 1199.63 44.5846 1194.66 44.5C1189.75 44.4165 1184.82 44.7236 1179.97 45.4375C1155.36 49.0564 1133.77 62.7489 1116.31 79.9688C1103.17 92.9319 1092.08 107.842 1082.22 123.406C1069.05 144.198 1057.99 166.298 1048.09 188.812C1031.54 226.466 1017.95 265.39 1005.88 304.688C992.874 347.002 981.676 389.858 971.781 433C968.544 447.116 965.45 461.283 962.531 475.469C961.572 480.132 960.632 484.796 959.719 489.469C959.398 491.108 959.093 492.734 958.781 494.375C958.686 494.876 958.594 495.374 958.5 495.875C958.475 496.01 958.462 496.088 958.438 496.219C958.451 496.145 958.389 496.364 958.375 496.438C958.346 496.589 958.344 496.619 958.312 496.781C958.243 497.142 958.196 497.515 958.125 497.875C957.951 498.761 957.771 499.646 957.594 500.531C957.067 503.167 956.513 505.774 955.969 508.406C954.262 516.655 952.49 524.904 950.656 533.125C944.046 562.762 936.753 592.248 928.719 621.531C922.38 644.636 915.601 667.642 908.125 690.406C898.562 719.525 888.132 748.374 875.781 776.438C866.868 796.69 857.008 816.654 844.969 835.25C837.828 846.28 829.878 857.156 820 865.906C817.157 868.425 814.143 870.784 810.812 872.625C808.942 873.659 806.93 874.563 804.812 874.938C799.701 875.842 794.206 872.183 790.375 869.312C789.473 868.637 788.583 867.911 787.719 867.188C782.818 863.082 778.467 858.363 774.406 853.438C768.539 846.321 763.315 838.696 758.438 830.875C744.274 808.164 732.895 783.738 722.625 759.062C709.343 727.149 697.996 694.454 687.594 661.5C674.253 619.236 662.524 576.47 651.688 533.5C643.423 500.728 635.833 467.764 627.406 435.031C619.811 405.532 611.77 376.138 603.094 346.938C600.293 337.51 597.418 328.101 594.469 318.719C592.918 313.784 591.316 308.877 589.781 303.938C584.442 286.752 578.82 269.651 572.812 252.688C570.129 245.109 567.302 237.578 564.531 230.031C561.042 220.529 557.71 211.008 554.062 201.562C544.051 175.64 532.685 150.156 518.625 126.156C507.059 106.414 493.675 87.3497 477 71.5625C466.256 61.3905 454.13 52.5701 440.688 46.3125C430.611 41.6217 419.848 38.4232 408.812 37.0312C404.706 36.5133 400.575 36.2348 396.438 36.2188Z" fill="#1dbb45" stroke="none"/>
</g>
</g>
</svg>
