<?xml version="1.0" encoding="UTF-8" standalone="no"?>
<!DOCTYPE svg PUBLIC "-//W3C//DTD SVG 1.1//EN" "http://www.w3.org/Graphics/SVG/1.1/DTD/svg11.dtd">
<!-- Created with Vectornator (http://vectornator.io/) -->
<svg height="100%" stroke-miterlimit="10" style="fill-rule:nonzero;clip-rule:evenodd;stroke-linecap:round;stroke-linejoin:round;" version="1.1" viewBox="0 0 2000 2000" width="100%" xml:space="preserve" xmlns="http://www.w3.org/2000/svg" xmlns:xlink="http://www.w3.org/1999/xlink">
<defs/>
<g id="Layer-1">
<g opacity="1">
<path d="M321.062 812.75C316.113 812.892 311.176 813.337 306.281 814.094C291.143 816.434 276.558 821.719 263.156 829.094C237.724 843.088 216.858 864.267 199.625 887.375C184.825 907.22 172.357 928.793 161.594 951.062C157.819 958.872 154.26 966.8 150.938 974.812C149.223 978.947 147.519 983.11 146.062 987.344C135.611 1018.37 152.284 1051.99 183.312 1062.44C214.341 1072.89 247.955 1056.22 258.406 1025.19C258.335 1025.39 258.518 1024.76 258.531 1024.72C258.657 1024.31 258.806 1023.91 258.938 1023.5C259.268 1022.48 259.621 1021.45 259.969 1020.44C261.095 1017.16 262.261 1013.92 263.5 1010.69C266.932 1001.73 270.741 992.894 274.906 984.25C279.802 974.091 285.226 964.187 291.406 954.75C296.585 946.842 302.263 939.159 308.969 932.469C312.558 928.888 316.492 925.498 320.906 922.969C322.942 921.802 325.265 920.67 327.656 920.562C330.135 920.451 332.582 921.152 334.875 922.031C339.567 923.831 343.931 926.57 347.969 929.531C354.201 934.103 359.882 939.392 365.219 944.969C370.026 949.991 374.582 955.237 378.938 960.656C392.56 977.605 404.476 995.851 415.719 1014.44C421.274 1023.62 426.636 1032.94 432.25 1042.09C435.501 1047.39 438.955 1052.54 442.188 1057.84C446.923 1065.62 451.698 1073.36 456.75 1080.94C461.404 1087.92 466.272 1094.72 471.25 1101.47C480.129 1113.51 489.487 1125.18 499.938 1135.91C521.036 1157.56 546.809 1175.98 576.75 1182.62C582.741 1183.96 588.809 1184.82 594.938 1185.16C601.856 1185.54 608.821 1185.27 615.688 1184.34C625.945 1182.96 635.978 1180.11 645.5 1176.06C668.195 1166.43 687.484 1150.29 703.688 1131.94C714.78 1119.38 724.537 1105.67 733.312 1091.41C741.887 1077.47 749.569 1062.98 756.438 1048.12C759.337 1041.86 762.096 1035.53 764.688 1029.12C765.588 1026.9 766.461 1024.68 767.312 1022.44C767.592 1021.7 767.885 1020.96 768.156 1020.22C768.159 1020.21 768.153 1020.2 768.156 1020.19C768.16 1020.18 768.153 1020.17 768.156 1020.16C768.185 1020.08 768.221 1019.98 768.25 1019.91C768.269 1019.86 768.291 1019.8 768.312 1019.75C768.324 1019.72 768.333 1019.69 768.344 1019.66C768.347 1019.65 768.34 1019.63 768.344 1019.62C768.361 1019.58 768.391 1019.54 768.406 1019.5C768.411 1019.49 768.432 1019.48 768.438 1019.47C768.455 1019.42 768.486 1019.26 768.469 1019.31C768.62 1018.93 768.783 1018.56 768.938 1018.19C769.462 1016.91 770.016 1015.65 770.562 1014.38C772.209 1010.55 773.932 1006.76 775.719 1003C781.097 991.678 787.062 980.63 793.656 969.969C800.069 959.601 807.091 949.572 815.031 940.312C821.446 932.832 828.511 925.765 836.531 920C845.949 913.23 856.712 908.3 868.531 910.094C873.659 910.872 878.564 912.84 883.125 915.25C891.067 919.448 898.182 925.192 904.688 931.344C913.96 940.11 922.174 949.937 929.75 960.188C938.625 972.195 946.621 984.829 954.094 997.75C963.678 1014.32 972.03 1031.56 981.406 1048.25C989.758 1063.11 998.686 1077.67 1008.44 1091.66C1018.62 1106.26 1029.69 1120.27 1042.12 1133.03C1063.92 1155.39 1090.74 1174.38 1121.91 1180.38C1135.27 1182.95 1149.03 1183.02 1162.41 1180.5C1188.85 1175.51 1212.2 1160.74 1231.28 1142.19C1243.96 1129.85 1254.95 1115.88 1264.72 1101.16C1276 1084.17 1285.73 1066.16 1294.22 1047.62C1297.05 1041.45 1299.75 1035.21 1302.28 1028.91C1303.16 1026.72 1304.02 1024.52 1304.84 1022.31C1305.11 1021.59 1305.39 1020.88 1305.66 1020.16C1305.71 1020.01 1305.73 1019.86 1305.78 1019.72C1305.8 1019.68 1305.83 1019.64 1305.84 1019.59C1305.87 1019.53 1305.88 1019.47 1305.91 1019.41C1306.01 1019.13 1306.14 1018.84 1306.25 1018.56C1306.62 1017.63 1307 1016.71 1307.38 1015.78C1308.41 1013.25 1309.46 1010.75 1310.56 1008.25C1314 1000.46 1317.74 992.785 1321.72 985.25C1330.68 968.264 1340.94 951.747 1353.41 937.094C1357.44 932.353 1361.77 927.914 1366.25 923.594C1371.72 918.317 1377.74 913.443 1384.5 909.906C1386.29 908.969 1388.14 908.21 1390 907.438C1393.92 905.811 1397.84 904.571 1402.09 904.25C1413.25 903.408 1423.97 908.538 1433.06 914.5C1441.3 919.906 1448.67 926.484 1455.53 933.531C1465.33 943.594 1474.04 954.64 1482.19 966.062C1491.44 979.032 1499.83 992.602 1507.72 1006.44C1514.26 1017.91 1520.45 1029.57 1527.12 1040.97C1537.65 1058.93 1549.02 1076.45 1561.78 1092.91C1572.34 1106.53 1583.9 1119.47 1596.94 1130.78C1616.32 1147.59 1639.68 1161.08 1665.69 1163.31C1670.51 1163.73 1675.36 1163.75 1680.19 1163.38C1687.14 1162.83 1694.01 1161.51 1700.66 1159.41C1710.58 1156.27 1719.93 1151.47 1728.53 1145.62C1747 1133.07 1762.05 1115.97 1774.75 1097.75C1784.1 1084.33 1792.25 1070.09 1799.56 1055.47C1806.76 1041.05 1813.2 1026.23 1818.56 1011.03C1821.31 1003.58 1817.48 995.309 1810.03 992.562C1802.58 989.816 1794.34 993.643 1791.59 1001.09C1791.59 1001.07 1791.58 1001.11 1791.56 1001.16C1791.53 1001.24 1791.5 1001.3 1791.47 1001.38C1791.37 1001.61 1791.25 1001.86 1791.16 1002.09C1790.94 1002.61 1790.72 1003.11 1790.5 1003.62C1789.89 1005.04 1789.29 1006.47 1788.66 1007.88C1786.81 1011.99 1784.85 1016.05 1782.84 1020.09C1776.6 1032.68 1769.73 1044.96 1762.09 1056.75C1758.47 1062.34 1754.66 1067.8 1750.66 1073.12C1747.35 1077.53 1743.93 1081.84 1740.31 1086C1737.55 1089.18 1734.67 1092.27 1731.69 1095.25C1717.29 1109.66 1698.13 1123.78 1676.78 1123.34C1673.2 1123.27 1669.63 1122.78 1666.16 1121.94C1661.11 1120.71 1656.29 1118.73 1651.72 1116.28C1640.35 1110.2 1630.56 1101.39 1621.91 1091.94C1609.18 1078.04 1598.54 1062.28 1589 1046.06C1581.62 1033.51 1574.85 1020.58 1568.59 1007.44C1562.92 995.531 1557.73 983.43 1551.91 971.594C1542.86 953.205 1532.95 935.241 1521.72 918.094C1515.13 908.044 1508.12 898.281 1500.41 889.062C1478.7 863.112 1451.25 840.574 1417.34 833.656C1410.74 832.309 1404.02 831.598 1397.28 831.531C1388.92 831.448 1380.53 832.358 1372.38 834.188C1362.04 836.506 1352.13 840.654 1342.84 845.719C1331.2 852.068 1320.11 860.11 1310.44 869.188C1306.37 873.002 1302.52 877.057 1298.78 881.188C1287.58 893.557 1277.69 907.078 1268.75 921.156C1258.93 936.629 1250.22 952.79 1242.5 969.406C1239.62 975.613 1236.87 981.9 1234.31 988.25C1232.46 992.854 1230.8 997.534 1228.91 1002.12C1225.93 1009.36 1222.69 1016.46 1219.22 1023.47C1212.41 1037.24 1204.8 1050.67 1195.88 1063.19C1189.31 1072.4 1182.05 1081.23 1173.59 1088.78C1165.22 1096.26 1154.34 1103.77 1142.62 1103.69C1137.27 1103.65 1132.09 1102.07 1127.28 1099.81C1120.05 1096.43 1113.53 1091.54 1107.59 1086.25C1098.85 1078.46 1091.14 1069.6 1084 1060.34C1074.17 1047.6 1065.42 1034.03 1057.34 1020.12C1052.87 1012.43 1048.61 1004.61 1044.5 996.719C1038.72 985.632 1033.18 974.441 1027.12 963.5C1017.38 945.899 1006.8 928.72 994.969 912.438C985.037 898.768 974.224 885.688 962.125 873.875C939.898 852.174 912.462 834.329 881.312 829.344C875.39 828.396 869.405 827.845 863.406 827.812C850.905 827.744 838.442 829.783 826.562 833.656C798.769 842.719 775.169 861.313 755.781 882.781C744.613 895.148 734.698 908.589 725.688 922.594C715.983 937.678 707.315 953.455 699.625 969.656C696.813 975.58 694.135 981.585 691.656 987.656C690.708 989.98 689.858 992.322 688.938 994.656C687.494 998.316 685.988 1001.96 684.406 1005.56C677.592 1021.08 669.747 1036.19 660.656 1050.5C653.746 1061.38 646.091 1071.9 637.125 1081.19C631.473 1087.04 625.235 1092.49 618.156 1096.56C614.178 1098.85 609.839 1100.72 605.281 1101.44C593.449 1103.3 581.965 1096.48 573.031 1089.47C571.167 1088.01 569.33 1086.45 567.562 1084.88C561.195 1079.19 555.433 1072.89 550 1066.31C546.275 1061.8 542.643 1057.16 539.281 1052.38C535.592 1047.12 532.198 1041.65 528.875 1036.16C523.768 1027.72 518.729 1019.14 514.562 1010.19C511.706 1004.05 508.969 997.879 506.312 991.656C502.923 983.717 499.65 975.732 496 967.906C484.768 943.822 472.212 920.377 457.125 898.469C447.152 883.988 436.125 870.202 423.562 857.875C415.303 849.77 406.401 842.291 396.781 835.844C378.616 823.668 357.759 815.367 335.906 813.25C330.976 812.772 326.012 812.608 321.062 812.75Z" fill="#084cba" stroke="none"/>
</g>
</g>
</svg>
