<?xml version="1.0" encoding="UTF-8" standalone="no"?>
<!DOCTYPE svg PUBLIC "-//W3C//DTD SVG 1.1//EN" "http://www.w3.org/Graphics/SVG/1.1/DTD/svg11.dtd">
<!-- Created with Vectornator (http://vectornator.io/) -->
<svg height="100%" stroke-miterlimit="10" style="fill-rule:nonzero;clip-rule:evenodd;stroke-linecap:round;stroke-linejoin:round;" version="1.1" viewBox="0 0 2000 406.15" width="100%" xml:space="preserve" xmlns="http://www.w3.org/2000/svg" xmlns:xlink="http://www.w3.org/1999/xlink">
<defs/>
<g id="Layer-1">
<g opacity="1">
<path d="M317.406 10.6875C312.456 10.8299 307.52 11.3059 302.625 12.0625C287.486 14.4024 272.902 19.6569 259.5 27.0312C234.067 41.0253 213.202 62.2041 195.969 85.3125C181.169 105.158 168.701 126.762 157.938 149.031C154.163 156.841 150.604 164.738 147.281 172.75C145.567 176.884 143.863 181.047 142.406 185.281C131.955 216.31 148.628 249.924 179.656 260.375C210.685 270.826 244.299 254.153 254.75 223.125C254.679 223.328 254.894 222.697 254.906 222.656C255.032 222.248 255.149 221.844 255.281 221.438C255.612 220.42 255.965 219.386 256.312 218.375C257.439 215.098 258.604 211.861 259.844 208.625C263.276 199.665 267.085 190.831 271.25 182.188C276.146 172.029 281.57 162.125 287.75 152.688C292.929 144.78 298.607 137.127 305.312 130.438C308.902 126.857 312.836 123.467 317.25 120.938C319.286 119.771 321.609 118.607 324 118.5C326.479 118.389 328.926 119.09 331.219 119.969C335.91 121.768 340.306 124.507 344.344 127.469C350.576 132.04 356.225 137.361 361.562 142.938C366.369 147.96 370.926 153.175 375.281 158.594C388.904 175.543 400.82 193.789 412.062 212.375C417.618 221.56 422.98 230.882 428.594 240.031C431.845 245.329 435.299 250.505 438.531 255.812C443.267 263.588 448.042 271.33 453.094 278.906C457.748 285.886 462.647 292.687 467.625 299.438C476.504 311.478 485.83 323.118 496.281 333.844C517.38 355.497 543.152 373.914 573.094 380.562C579.085 381.893 585.153 382.754 591.281 383.094C598.199 383.477 605.165 383.208 612.031 382.281C622.288 380.897 632.321 378.043 641.844 374C664.538 364.364 683.827 348.226 700.031 329.875C711.123 317.313 720.881 303.608 729.656 289.344C738.231 275.406 745.913 260.914 752.781 246.062C755.68 239.793 758.439 233.465 761.031 227.062C761.932 224.838 762.836 222.619 763.688 220.375C763.967 219.639 764.229 218.895 764.5 218.156C764.508 218.136 764.523 218.115 764.531 218.094C764.56 218.02 764.565 217.949 764.594 217.875C764.616 217.818 764.631 217.751 764.656 217.688C764.667 217.657 764.677 217.624 764.688 217.594C764.704 217.55 764.734 217.513 764.75 217.469C764.759 217.447 764.773 217.428 764.781 217.406C764.785 217.397 764.776 217.389 764.781 217.375C764.945 216.966 765.114 216.564 765.281 216.156C765.806 214.876 766.359 213.583 766.906 212.312C768.552 208.487 770.276 204.699 772.062 200.938C777.441 189.615 783.405 178.567 790 167.906C796.413 157.538 803.434 147.541 811.375 138.281C817.79 130.8 824.855 123.734 832.875 117.969C842.292 111.199 853.055 106.238 864.875 108.031C870.002 108.809 874.908 110.808 879.469 113.219C887.411 117.416 894.525 123.13 901.031 129.281C910.303 138.048 918.518 147.875 926.094 158.125C934.968 170.132 942.996 182.767 950.469 195.688C960.053 212.259 968.374 229.502 977.75 246.188C986.102 261.05 995.03 275.605 1004.78 289.594C1014.96 304.199 1026.06 318.241 1038.5 331C1060.29 353.357 1087.08 372.348 1118.25 378.344C1131.61 380.914 1145.38 380.962 1158.75 378.438C1185.19 373.447 1208.55 358.707 1227.62 340.156C1240.31 327.823 1251.32 313.815 1261.09 299.094C1272.37 282.105 1282.1 264.093 1290.59 245.562C1293.42 239.388 1296.1 233.148 1298.62 226.844C1299.5 224.656 1300.36 222.456 1301.19 220.25C1301.46 219.528 1301.74 218.818 1302 218.094C1302.03 218.014 1302.03 217.921 1302.06 217.844C1302.08 217.783 1302.1 217.717 1302.12 217.656C1302.14 217.613 1302.17 217.576 1302.19 217.531C1302.21 217.464 1302.26 217.408 1302.28 217.344C1302.28 217.347 1302.25 217.34 1302.25 217.344C1302.27 217.297 1302.33 217.172 1302.31 217.219C1302.4 216.981 1302.5 216.737 1302.59 216.5C1302.96 215.571 1303.34 214.643 1303.72 213.719C1304.75 211.192 1305.8 208.686 1306.91 206.188C1310.35 198.393 1314.09 190.723 1318.06 183.188C1327.03 166.202 1337.28 149.685 1349.75 135.031C1353.78 130.29 1358.15 125.852 1362.62 121.531C1368.09 116.254 1374.09 111.381 1380.84 107.844C1382.63 106.907 1384.48 106.148 1386.34 105.375C1390.26 103.749 1394.18 102.509 1398.44 102.188C1409.6 101.345 1420.32 106.476 1429.41 112.438C1437.65 117.843 1445.01 124.421 1451.88 131.469C1461.68 141.532 1470.38 152.578 1478.53 164C1487.79 176.97 1496.17 190.54 1504.06 204.375C1510.61 215.847 1516.79 227.541 1523.47 238.938C1533.99 256.895 1545.37 274.387 1558.12 290.844C1568.69 304.469 1580.24 317.438 1593.28 328.75C1612.66 345.563 1636.02 359.017 1662.03 361.25C1666.85 361.664 1671.71 361.688 1676.53 361.312C1683.48 360.772 1690.35 359.444 1697 357.344C1706.93 354.206 1716.27 349.438 1724.88 343.594C1743.35 331.043 1758.4 313.909 1771.09 295.688C1780.44 282.268 1788.6 268.062 1795.91 253.438C1803.11 239.023 1809.54 224.165 1814.91 208.969C1817.65 201.518 1813.86 193.278 1806.41 190.531C1798.96 187.785 1790.68 191.581 1787.94 199.031C1787.93 199.011 1787.93 199.044 1787.91 199.094C1787.87 199.173 1787.85 199.264 1787.81 199.344C1787.72 199.577 1787.6 199.798 1787.5 200.031C1787.28 200.546 1787.06 201.049 1786.84 201.562C1786.23 202.981 1785.63 204.405 1785 205.812C1783.15 209.924 1781.22 213.992 1779.22 218.031C1772.98 230.613 1766.08 242.902 1758.44 254.688C1754.81 260.277 1751 265.736 1747 271.062C1743.69 275.469 1740.27 279.779 1736.66 283.938C1733.89 287.117 1731.01 290.237 1728.03 293.219C1713.63 307.63 1694.47 321.72 1673.12 321.281C1669.55 321.208 1665.98 320.719 1662.5 319.875C1657.46 318.652 1652.63 316.663 1648.06 314.219C1636.69 308.139 1626.94 299.329 1618.28 289.875C1605.56 275.98 1594.88 260.215 1585.34 244C1577.96 231.449 1571.2 218.55 1564.94 205.406C1559.27 193.5 1554.07 181.367 1548.25 169.531C1539.2 151.143 1529.3 133.179 1518.06 116.031C1511.48 105.982 1504.46 96.2181 1496.75 87C1475.04 61.0495 1447.6 38.5111 1413.69 31.5938C1407.09 30.2469 1400.36 29.5356 1393.62 29.4688C1385.26 29.3858 1376.88 30.2954 1368.72 32.125C1358.38 34.4438 1348.47 38.5915 1339.19 43.6562C1327.55 50.0055 1316.45 58.0781 1306.78 67.1562C1302.72 70.9708 1298.86 74.9948 1295.12 79.125C1283.93 91.4946 1274.03 105.016 1265.09 119.094C1255.27 134.566 1246.57 150.728 1238.84 167.344C1235.96 173.55 1233.21 179.838 1230.66 186.188C1228.8 190.792 1227.14 195.471 1225.25 200.062C1222.27 207.294 1219.03 214.428 1215.56 221.438C1208.75 235.205 1201.14 248.609 1192.22 261.125C1185.65 270.337 1178.39 279.167 1169.94 286.719C1161.56 294.196 1150.68 301.705 1138.97 301.625C1133.61 301.589 1128.44 300.004 1123.62 297.75C1116.4 294.363 1109.88 289.506 1103.94 284.219C1095.19 276.432 1087.49 267.542 1080.34 258.281C1070.52 245.542 1061.8 231.965 1053.72 218.062C1049.25 210.37 1044.96 202.546 1040.84 194.656C1035.06 183.57 1029.53 172.379 1023.47 161.438C1013.73 143.837 1003.14 126.657 991.312 110.375C981.381 96.7055 970.568 83.6256 958.469 71.8125C936.241 50.1113 908.806 32.2662 877.656 27.2812C871.734 26.3335 865.749 25.7827 859.75 25.75C847.249 25.6819 834.786 27.7515 822.906 31.625C795.113 40.6877 771.544 59.2507 752.156 80.7188C740.988 93.0852 731.042 106.526 722.031 120.531C712.327 135.615 703.659 151.393 695.969 167.594C693.157 173.518 690.479 179.522 688 185.594C687.052 187.917 686.202 190.259 685.281 192.594C683.838 196.254 682.332 199.898 680.75 203.5C673.936 219.019 666.09 234.125 657 248.438C650.09 259.316 642.435 269.839 633.469 279.125C627.817 284.979 621.579 290.459 614.5 294.531C610.522 296.82 606.183 298.688 601.625 299.406C589.792 301.27 578.309 294.417 569.375 287.406C567.511 285.943 565.705 284.422 563.938 282.844C557.57 277.157 551.777 270.858 546.344 264.281C542.619 259.772 538.987 255.132 535.625 250.344C531.936 245.09 528.541 239.585 525.219 234.094C520.111 225.653 515.073 217.104 510.906 208.156C508.05 202.023 505.313 195.816 502.656 189.594C499.267 181.654 495.993 173.67 492.344 165.844C481.112 141.76 468.556 118.314 453.469 96.4062C443.496 81.925 432.469 68.1707 419.906 55.8438C411.647 47.739 402.744 40.229 393.125 33.7812C374.96 21.605 354.103 13.3043 332.25 11.1875C327.32 10.7099 322.356 10.5451 317.406 10.6875Z" fill="#084cba" stroke="none"/>
</g>
</g>
</svg>
