<?xml version="1.0" encoding="UTF-8" standalone="no"?>
<!DOCTYPE svg PUBLIC "-//W3C//DTD SVG 1.1//EN" "http://www.w3.org/Graphics/SVG/1.1/DTD/svg11.dtd">
<!-- Created with Vectornator (http://vectornator.io/) -->
<svg height="100%" stroke-miterlimit="10" style="fill-rule:nonzero;clip-rule:evenodd;stroke-linecap:round;stroke-linejoin:round;" version="1.1" viewBox="0 0 2000 2000" width="100%" xml:space="preserve" xmlns="http://www.w3.org/2000/svg" xmlns:xlink="http://www.w3.org/1999/xlink">
<defs>
<path d="M391.06 42.4526C198.535 42.4526 42.4526 198.535 42.4526 391.06L42.4526 1608.94C42.4526 1801.47 198.535 1957.55 391.06 1957.55L1608.94 1957.55C1801.47 1957.55 1957.55 1801.47 1957.55 1608.94L1957.55 391.06C1957.55 198.535 1801.47 42.4526 1608.94 42.4526L391.06 42.4526ZM419.726 87.5471L1580.27 87.5471C1763.73 87.5471 1912.45 236.266 1912.45 419.726L1912.45 1580.27C1912.45 1763.73 1763.73 1912.45 1580.27 1912.45L419.726 1912.45C236.266 1912.45 87.5471 1763.73 87.5471 1580.27L87.5471 419.726C87.5471 236.266 236.266 87.5471 419.726 87.5471ZM321.368 196.348C254.643 196.348 200.568 250.424 200.568 317.149L200.568 516.678C200.568 583.403 254.643 637.479 321.368 637.479L525.535 637.479C592.26 637.479 646.366 583.403 646.366 516.678L646.366 317.149C646.366 250.424 592.26 196.348 525.535 196.348L321.368 196.348ZM897.931 196.348C831.207 196.348 777.101 250.424 777.101 317.149L777.101 516.678C777.101 583.403 831.207 637.479 897.931 637.479L1102.07 637.479C1168.79 637.479 1222.9 583.403 1222.9 516.678L1222.9 317.149C1222.9 250.424 1168.79 196.348 1102.07 196.348L897.931 196.348ZM1476.08 196.348C1409.36 196.348 1355.28 250.424 1355.28 317.149L1355.28 516.678C1355.28 583.403 1409.36 637.479 1476.08 637.479L1680.25 637.479C1746.97 637.479 1801.05 583.403 1801.05 516.678L1801.05 317.149C1801.05 250.424 1746.97 196.348 1680.25 196.348L1476.08 196.348ZM320.56 779.435C253.835 779.435 199.76 833.511 199.76 900.236L199.76 1099.76C199.76 1166.49 253.835 1220.57 320.56 1220.57L524.727 1220.57C591.452 1220.57 645.528 1166.49 645.528 1099.76L645.528 900.236C645.528 833.511 591.452 779.435 524.727 779.435L320.56 779.435ZM897.094 779.435C830.369 779.435 776.293 833.511 776.293 900.236L776.293 1099.76C776.293 1166.49 830.369 1220.57 897.094 1220.57L1101.26 1220.57C1167.99 1220.57 1222.09 1166.49 1222.09 1099.76L1222.09 900.236C1222.09 833.511 1167.99 779.435 1101.26 779.435L897.094 779.435ZM1475.27 779.435C1408.55 779.435 1354.47 833.511 1354.47 900.236L1354.47 1099.76C1354.47 1166.49 1408.55 1220.57 1475.27 1220.57L1679.44 1220.57C1746.16 1220.57 1800.24 1166.49 1800.24 1099.76L1800.24 900.236C1800.24 833.511 1746.16 779.435 1679.44 779.435L1475.27 779.435ZM320.56 1356.42C253.835 1356.42 199.76 1410.52 199.76 1477.25L199.76 1676.75C199.76 1743.47 253.835 1797.58 320.56 1797.58L524.727 1797.58C591.452 1797.58 645.528 1743.47 645.528 1676.75L645.528 1477.25C645.528 1410.52 591.452 1356.42 524.727 1356.42L320.56 1356.42ZM897.094 1356.42C830.369 1356.42 776.293 1410.52 776.293 1477.25L776.293 1676.75C776.293 1743.47 830.369 1797.58 897.094 1797.58L1101.26 1797.58C1167.99 1797.58 1222.09 1743.47 1222.09 1676.75L1222.09 1477.25C1222.09 1410.52 1167.99 1356.42 1101.26 1356.42L897.094 1356.42ZM1475.27 1356.42C1408.55 1356.42 1354.47 1410.52 1354.47 1477.25L1354.47 1676.75C1354.47 1743.47 1408.55 1797.58 1475.27 1797.58L1679.44 1797.58C1746.16 1797.58 1800.24 1743.47 1800.24 1676.75L1800.24 1477.25C1800.24 1410.52 1746.16 1356.42 1679.44 1356.42L1475.27 1356.42Z" id="Fill"/>
<linearGradient gradientTransform="matrix(0.957547 0 0 0.957547 42.4526 42.4526)" gradientUnits="userSpaceOnUse" id="LinearGradient" x1="-743.637" x2="1513.17" y1="-499.069" y2="1179.42">
<stop offset="0.315908" stop-color="#1111bc"/>
<stop offset="1" stop-color="#00dcff"/>
</linearGradient>
<filter color-interpolation-filters="sRGB" filterUnits="userSpaceOnUse" height="2013.81" id="Filter" width="2013.81" x="-6.90267" y="-6.90267">
<feGaussianBlur in="SourceGraphic" result="Blur" stdDeviation="19.7421"/>
</filter>
<linearGradient gradientTransform="matrix(0.957547 0 0 0.957547 42.4526 42.4526)" gradientUnits="userSpaceOnUse" id="LinearGradient_2" x1="0" x2="2000" y1="1000" y2="1000">
<stop offset="0.315908" stop-color="#1111bc"/>
<stop offset="1" stop-color="#00dcff"/>
</linearGradient>
<filter color-interpolation-filters="sRGB" filterUnits="userSpaceOnUse" height="2013.81" id="Filter_2" width="2013.81" x="-6.90267" y="-6.90267">
<feGaussianBlur in="SourceGraphic" result="Blur" stdDeviation="19.7421"/>
</filter>
</defs>
<clipPath id="ArtboardFrame">
<rect height="2000" width="2000" x="0" y="0"/>
</clipPath>
<g clip-path="url(#ArtboardFrame)" id="Layer-1">
<use fill="url(#LinearGradient)" fill-rule="nonzero" filter="url(#Filter)" opacity="1" stroke="none" xlink:href="#Fill"/>
<clipPath id="ClipPath">
<use xlink:href="#Fill"/>
</clipPath>
<g clip-path="url(#ClipPath)">
<path d="M42.4526 391.049C42.4526 198.525 198.525 42.4526 391.049 42.4526L1608.95 42.4526C1801.48 42.4526 1957.55 198.525 1957.55 391.049L1957.55 1608.95C1957.55 1801.48 1801.48 1957.55 1608.95 1957.55L391.049 1957.55C198.525 1957.55 42.4526 1801.48 42.4526 1608.95L42.4526 391.049Z" fill="url(#LinearGradient_2)" fill-rule="nonzero" filter="url(#Filter_2)" opacity="1" stroke="none"/>
</g>
</g>
<g clip-path="url(#ArtboardFrame)" id="backups" visibility="hidden">
<g opacity="0">
<path d="M165.116 286.884C165.116 217.201 221.605 160.712 291.288 160.712L504.502 160.712C574.185 160.712 630.674 217.201 630.674 286.884L630.674 495.24C630.674 564.923 574.185 621.413 504.502 621.413L291.288 621.413C221.605 621.413 165.116 564.923 165.116 495.24L165.116 286.884Z" fill="#ffffff" fill-rule="nonzero" opacity="1" stroke="none"/>
<path d="M164.269 895.822C164.269 826.139 220.758 769.649 290.441 769.649L503.655 769.649C573.338 769.649 629.827 826.139 629.827 895.822L629.827 1104.18C629.827 1173.86 573.338 1230.35 503.655 1230.35L290.441 1230.35C220.758 1230.35 164.269 1173.86 164.269 1104.18L164.269 895.822Z" fill="#ffffff" fill-rule="nonzero" opacity="1" stroke="none"/>
<path d="M164.269 1498.41C164.269 1428.72 220.758 1372.23 290.441 1372.23L503.655 1372.23C573.338 1372.23 629.827 1428.72 629.827 1498.41L629.827 1706.76C629.827 1776.44 573.338 1832.93 503.655 1832.93L290.441 1832.93C220.758 1832.93 164.269 1776.44 164.269 1706.76L164.269 1498.41Z" fill="#ffffff" fill-rule="nonzero" opacity="1" stroke="none"/>
<path d="M1371.02 286.884C1371.02 217.201 1427.51 160.712 1497.19 160.712L1710.41 160.712C1780.09 160.712 1836.58 217.201 1836.58 286.884L1836.58 495.24C1836.58 564.923 1780.09 621.413 1710.41 621.413L1497.19 621.413C1427.51 621.413 1371.02 564.923 1371.02 495.24L1371.02 286.884Z" fill="#ffffff" fill-rule="nonzero" opacity="1" stroke="none"/>
<path d="M1370.17 895.822C1370.17 826.139 1426.66 769.649 1496.34 769.649L1709.56 769.649C1779.24 769.649 1835.73 826.139 1835.73 895.822L1835.73 1104.18C1835.73 1173.86 1779.24 1230.35 1709.56 1230.35L1496.34 1230.35C1426.66 1230.35 1370.17 1173.86 1370.17 1104.18L1370.17 895.822Z" fill="#ffffff" fill-rule="nonzero" opacity="1" stroke="none"/>
<path d="M1370.17 1498.41C1370.17 1428.72 1426.66 1372.23 1496.34 1372.23L1709.56 1372.23C1779.24 1372.23 1835.73 1428.72 1835.73 1498.41L1835.73 1706.76C1835.73 1776.44 1779.24 1832.93 1709.56 1832.93L1496.34 1832.93C1426.66 1832.93 1370.17 1776.44 1370.17 1706.76L1370.17 1498.41Z" fill="#ffffff" fill-rule="nonzero" opacity="1" stroke="none"/>
<path d="M767.221 286.884C767.221 217.201 823.71 160.712 893.393 160.712L1106.61 160.712C1176.29 160.712 1232.78 217.201 1232.78 286.884L1232.78 495.24C1232.78 564.923 1176.29 621.413 1106.61 621.413L893.393 621.413C823.71 621.413 767.221 564.923 767.221 495.24L767.221 286.884Z" fill="#ffffff" fill-rule="nonzero" opacity="1" stroke="none"/>
<path d="M766.374 895.822C766.374 826.139 822.863 769.649 892.546 769.649L1105.76 769.649C1175.44 769.649 1231.93 826.139 1231.93 895.822L1231.93 1104.18C1231.93 1173.86 1175.44 1230.35 1105.76 1230.35L892.546 1230.35C822.863 1230.35 766.374 1173.86 766.374 1104.18L766.374 895.822Z" fill="#ffffff" fill-rule="nonzero" opacity="1" stroke="none"/>
<path d="M766.374 1498.41C766.374 1428.72 822.863 1372.23 892.546 1372.23L1105.76 1372.23C1175.44 1372.23 1231.93 1428.72 1231.93 1498.41L1231.93 1706.76C1231.93 1776.44 1175.44 1832.93 1105.76 1832.93L892.546 1832.93C822.863 1832.93 766.374 1776.44 766.374 1706.76L766.374 1498.41Z" fill="#ffffff" fill-rule="nonzero" opacity="1" stroke="none"/>
</g>
<g opacity="0">
<path d="M0 364.052C0 162.991 162.991 0 364.052 0L1635.95 0C1837.01 0 2000 162.991 2000 364.052L2000 1635.95C2000 1837.01 1837.01 2000 1635.95 2000L364.052 2000C162.991 2000 0 1837.01 0 1635.95L0 364.052Z" fill="#ffffff" fill-rule="nonzero" opacity="1" stroke="#aa1515" stroke-linecap="butt" stroke-linejoin="miter" stroke-width="4.32"/>
<path d="M47.0814 393.993C47.0814 202.399 202.399 47.0814 393.993 47.0814L1606.01 47.0814C1797.6 47.0814 1952.92 202.399 1952.92 393.993L1952.92 1606.01C1952.92 1797.6 1797.6 1952.92 1606.01 1952.92L393.993 1952.92C202.399 1952.92 47.0814 1797.6 47.0814 1606.01L47.0814 393.993Z" fill="none" opacity="1" stroke="#aa1515" stroke-linecap="butt" stroke-linejoin="miter" stroke-width="4.32"/>
</g>
</g>
</svg>
